# xmcd CD database file
#
# Track frame offsets:
#	150
#	20197
#	41800
#	62401
#	82291
#	100236
#	117882
#	137792
#	156825
#	177167
#
# Disc length: 2601 seconds
#
# Revision: 0
# Processed by: cddbd v1.5.1PL0 Copyright (c) Steve Scherf et al.
# Submitted via: CDex 1.51
#
DISCID=890a270a
DTITLE=エンジェル隊 - GALAXY ANGEL Duet Album ANGEL SHAKE
DYEAR=2005
DGENRE=Game
TTITLE0=新谷良子・後藤沙緒里 - 笑顔にGet On !
TTITLE1=田村ゆかり・山口眞弓 - アテンション !
TTITLE2=沢城みゆき＆かないみか - 瞳にユートピア
TTITLE3=新谷良子・後藤沙緒里 - 正しい笑顔の回復法
TTITLE4=沢城みゆき＆かないみか - おつかいサンデー
TTITLE5=田村ゆかり・山口眞弓 - オンナ同士
TTITLE6=沢城みゆき＆かないみか - くっくー♪
TTITLE7=田村ゆかり・山口眞弓 - Happy Smile Brightness
TTITLE8=新谷良子・後藤沙緒里 - LOVE FROM SPACE
TTITLE9=エンジェル隊(新谷良子・田村ゆかり・沢城みゆき・山口眞弓・かないみか・後藤沙緒里/Yes Let's !
EXTD=YEAR: 2005
EXTT0=
EXTT1=
EXTT2=
EXTT3=
EXTT4=
EXTT5=
EXTT6=
EXTT7=
EXTT8=
EXTT9=
PLAYORDER=
